<svg width="24" height="24" viewBox="0 0 24 24" fill="none" xmlns="http://www.w3.org/2000/svg">
<path d="M12.036 23.9279C5.43632 23.9279 0.0720215 18.5636 0.0720215 11.9639C0.0720215 5.3643 5.43632 0 12.036 0C18.6356 0 23.9999 5.3643 23.9999 11.9639C23.9999 18.5636 18.6356 23.9279 12.036 23.9279ZM12.036 1.66939C6.36005 1.66939 1.74141 6.28803 1.74141 11.9639C1.74141 17.6399 6.36005 22.2585 12.036 22.2585C17.7119 22.2585 22.3305 17.6399 22.3305 11.9639C22.3305 6.28803 17.7119 1.66939 12.036 1.66939Z" fill="white"/>
<path d="M16.1646 16.3378C16.0199 16.3378 15.8752 16.3044 15.7417 16.2154L12.2916 14.1565C11.4347 13.6446 10.8003 12.5205 10.8003 11.53V6.96702C10.8003 6.51072 11.1787 6.13232 11.635 6.13232C12.0913 6.13232 12.4697 6.51072 12.4697 6.96702V11.53C12.4697 11.9307 12.8036 12.5205 13.1486 12.7208L16.5986 14.7797C16.9993 15.0135 17.1217 15.5254 16.888 15.9261C16.7211 16.1932 16.4428 16.3378 16.1646 16.3378Z" fill="white"/>
</svg>
