<svg xmlns="http://www.w3.org/2000/svg" viewBox="0 0 256 256" width="256" height="256"><path fill="#fc5d3d" d="M247.121 79.996H8.879V41.973c0-5.523 4.477-10 10-10H237.12c5.523 0 10 4.477 10 10v38.023z" class="colorfc5d3d svgShape"></path><path fill="#b25035" d="M59.61 31.97v14.47c0 9.12-7.42 16.54-16.54 16.54s-16.54-7.42-16.54-16.54V31.97h33.08zm56.62 0v14.47c0 9.12-7.42 16.54-16.54 16.54s-16.54-7.42-16.54-16.54V31.97h33.08zm56.62 0v14.47c0 9.12-7.42 16.54-16.54 16.54s-16.54-7.42-16.54-16.54V31.97h33.08zm56.62 0v14.47c0 9.12-7.42 16.54-16.54 16.54s-16.54-7.42-16.54-16.54V31.97h33.08z" class="colorb25035 svgShape"></path><path fill="#efefef" d="M43.069 55.984a9.543 9.543 0 0 1-9.543-9.543V16.272a9.543 9.543 0 0 1 9.543-9.543 9.543 9.543 0 0 1 9.543 9.543v30.169a9.543 9.543 0 0 1-9.543 9.543zm56.621 0a9.543 9.543 0 0 1-9.543-9.543V16.272a9.543 9.543 0 0 1 9.543-9.543 9.543 9.543 0 0 1 9.543 9.543v30.169c-.001 5.271-4.273 9.543-9.543 9.543zm56.62 0a9.543 9.543 0 0 1-9.543-9.543V16.272a9.543 9.543 0 0 1 9.543-9.543 9.543 9.543 0 0 1 9.543 9.543v30.169a9.542 9.542 0 0 1-9.543 9.543zm56.621 0a9.543 9.543 0 0 1-9.543-9.543V16.272a9.543 9.543 0 0 1 9.543-9.543 9.543 9.543 0 0 1 9.543 9.543v30.169a9.542 9.542 0 0 1-9.543 9.543zm24.19 193.287H18.879c-5.523 0-10-4.477-10-10V79.996H247.12v159.276c.001 5.522-4.477 9.999-9.999 9.999z" class="colorefefef svgShape"></path><path fill="#afafaf" d="M71.084 235.598c-23.728 0-38.06-26.234-25.25-46.199l54.123-84.36c11.808-18.405 38.71-18.378 50.5.001l54.124 84.359c12.813 19.973-1.527 46.199-25.25 46.199H71.084z" class="colorafafaf svgShape"></path><path fill="#f0c020" d="M71.084 228.598c-18.164 0-29.166-20.132-19.358-35.42l54.123-84.359c9.056-14.115 29.677-14.092 38.717 0l54.124 84.36c9.808 15.288-1.195 35.419-19.358 35.419H71.084z" class="colorf0c020 svgShape"></path><path fill="#efefef" d="M179.332 211.598H71.084c-4.745 0-7.612-5.247-5.05-9.24l54.124-84.36c2.361-3.68 7.739-3.68 10.1 0l54.124 84.36c2.562 3.993-.306 9.24-5.05 9.24z" class="colorefefef svgShape"></path><path fill="#afafaf" d="M125.208 173.764a6.267 6.267 0 0 1-6.267-6.267v-17.653a6.267 6.267 0 0 1 12.534 0v17.653a6.267 6.267 0 0 1-6.267 6.267zm0 10.574a6.267 6.267 0 0 0-6.267 6.267v.598a6.267 6.267 0 0 0 12.534 0v-.598a6.267 6.267 0 0 0-6.267-6.267z" class="colorafafaf svgShape"></path><path fill="#ffcbc3" d="M237.12 72.496H31.879a2.5 2.5 0 1 1 0-5H237.12a2.5 2.5 0 1 1 0 5zm-215.241 0h-3a2.5 2.5 0 1 1 0-5h3a2.5 2.5 0 1 1 0 5z" class="colorffcbc3 svgShape"></path><circle cx="187.12" cy="80" r="2.5" fill="#000000" class="color000 svgShape"></circle><path d="M6.38 239.27c0 6.891 5.61 12.5 12.5 12.5h218.24c6.89 0 12.5-5.609 12.5-12.5V41.97c0-6.893-5.607-12.5-12.5-12.5h-12.146V16.272c0-6.64-5.402-12.042-12.043-12.042s-12.043 5.402-12.043 12.042V29.47h-32.535V16.272c0-6.64-5.402-12.042-12.042-12.042-6.641 0-12.043 5.402-12.043 12.042V29.47h-32.535V16.272c0-6.64-5.402-12.042-12.043-12.042-6.64 0-12.042 5.402-12.042 12.042V29.47H55.112V16.272c0-6.64-5.402-12.042-12.043-12.042S31.026 9.632 31.026 16.272V29.47H18.88c-6.893 0-12.5 5.607-12.5 12.5v126.25c0 1.37 1.12 2.49 2.5 2.49s2.5-1.12 2.5-2.49V82.5h165.74a2.5 2.5 0 0 0 0-5H11.38V41.97c0-4.136 3.364-7.5 7.5-7.5h12.146v11.972c0 6.64 5.402 12.042 12.043 12.042s12.043-5.402 12.043-12.042V34.47h32.535v11.972c0 6.64 5.402 12.042 12.042 12.042 6.641 0 12.043-5.402 12.043-12.042V34.47h32.535v11.972c0 6.64 5.402 12.042 12.043 12.042 6.64 0 12.042-5.402 12.042-12.042V34.47h32.535v11.972c0 6.64 5.402 12.042 12.043 12.042s12.043-5.402 12.043-12.042V34.47h12.146c4.136 0 7.5 3.364 7.5 7.5V77.5h-47.5a2.5 2.5 0 0 0 0 5h47.5v156.77c-.01 4.13-3.37 7.49-7.5 7.5H18.88c-4.13-.01-7.49-3.37-7.5-7.5v-51.05a2.5 2.5 0 0 0-5 0v51.05zM43.069 53.484c-3.883 0-7.043-3.159-7.043-7.042v-30.17c0-3.883 3.16-7.042 7.043-7.042s7.043 3.159 7.043 7.042v30.17c0 3.883-3.16 7.042-7.043 7.042zm56.62 0a7.05 7.05 0 0 1-7.042-7.042v-30.17c0-3.883 3.159-7.042 7.042-7.042s7.043 3.159 7.043 7.042v30.17c0 3.883-3.159 7.042-7.043 7.042zm56.622 0c-3.883 0-7.043-3.159-7.043-7.042v-30.17c0-3.883 3.16-7.042 7.043-7.042s7.042 3.159 7.042 7.042v30.17a7.05 7.05 0 0 1-7.042 7.042zm56.62 0c-3.883 0-7.043-3.159-7.043-7.042v-30.17c0-3.883 3.16-7.042 7.043-7.042s7.043 3.159 7.043 7.042v30.17c0 3.883-3.16 7.042-7.043 7.042z" fill="#000000" class="color000 svgShape"></path><circle cx="8.88" cy="178.22" r="2.5" fill="#000000" class="color000 svgShape"></circle><path d="m103.745 107.468-54.123 84.359c-10.889 16.972 1.302 39.27 21.462 39.27h108.248c20.166 0 32.348-22.301 21.462-39.269l-54.124-84.36c-10.04-15.653-32.904-15.62-42.925 0zm75.587 118.629H71.084c-16.208 0-26.002-17.931-17.254-31.57l54.123-84.359c8.069-12.576 26.452-12.556 34.509 0l54.124 84.36c8.751 13.642-1.052 31.569-17.254 31.569z" fill="#000000" class="color000 svgShape"></path><path d="M132.362 116.649c-3.346-5.217-10.967-5.211-14.308 0L63.93 201.007c-3.634 5.665.425 13.091 7.154 13.091h108.247c6.729 0 10.788-7.427 7.154-13.09-.011-.017-.026-.03-.037-.047L170.16 175.56c-.72-1.12-2.32-1.479-3.45-.75-1.16.74-1.5 2.3-.76 3.46l16.328 25.437a3.453 3.453 0 0 1 .125 3.569 3.451 3.451 0 0 1-3.071 1.821H71.084c-2.772 0-4.441-3.057-2.946-5.391l54.124-84.359c1.373-2.141 4.486-2.157 5.878-.017.004.006.006.013.009.019l27 42.08a2.498 2.498 0 0 0 3.46.75c1.16-.74 1.5-2.29.75-3.45l-26.986-42.058c-.004-.006-.006-.015-.011-.022z" fill="#000000" class="color000 svgShape"></path><path d="M164.01 170.6c1.16-.74 1.5-2.29.75-3.45-.72-1.13-2.33-1.479-3.45-.76a2.513 2.513 0 0 0-.76 3.46 2.498 2.498 0 0 0 3.46.75zm-30.035-20.757c0-4.834-3.933-8.767-8.767-8.767s-8.767 3.933-8.767 8.767v17.653c0 4.834 3.933 8.768 8.767 8.768s8.767-3.934 8.767-8.768v-17.653zm-5 17.654c0 2.077-1.69 3.768-3.767 3.768s-3.767-1.69-3.767-3.768v-17.653c0-2.077 1.69-3.767 3.767-3.767s3.767 1.689 3.767 3.767v17.653zm-3.767 14.341c-4.834 0-8.767 3.933-8.767 8.767v.599c0 4.834 3.933 8.767 8.767 8.767s8.767-3.933 8.767-8.767v-.599c0-4.834-3.933-8.767-8.767-8.767zm3.767 9.366c0 2.077-1.69 3.767-3.767 3.767s-3.767-1.689-3.767-3.767v-.599c0-2.077 1.69-3.767 3.767-3.767s3.767 1.689 3.767 3.767v.599z" fill="#000000" class="color000 svgShape"></path></svg>