<svg xmlns="http://www.w3.org/2000/svg" viewBox="0 0 64 64" width="256" height="256"><g data-name="Layer 1" fill="#000000" class="color000 svgShape"><path fill="#efefef" d="M53.56,45.47a3,3,0,0,1-1.93,2.8l-5.07,1.94a45.29,45.29,0,0,1-16.6,3l-9.58-.06-.94-1.13a1.83,1.83,0,0,1-.23,2.58l-2.38,2a1.83,1.83,0,0,1-2.58-.23l-1.33-1.59a5.65,5.65,0,0,0,4.66-4.32l.41-.18.67-.27C31.27,51.17,39.7,47.72,45,44l4.72-1.38a3,3,0,0,1,3.62,1.77A2.94,2.94,0,0,1,53.56,45.47Z" class="colorefefef svgShape"></path><path fill="#6c5ffd" d="M42.07,35.55a1.5,1.5,0,0,1-.84-2.74A14.31,14.31,0,1,0,23,30.87a1.51,1.51,0,0,1,0,2.12,1.49,1.49,0,0,1-2.12,0,17.3,17.3,0,1,1,22.12,2.34A1.44,1.44,0,0,1,42.07,35.55Z" class="color6c5ffd svgShape"></path><path fill="#6c5ffd" d="M38,26.76a4.42,4.42,0,0,1-3.21,2v1a1.5,1.5,0,1,1-3,0v-1A10.68,10.68,0,0,1,29.46,28a1.5,1.5,0,0,1,1.2-2.75c2.27,1,4.32.68,4.69.05a.56.56,0,0,0,0-.46,4.91,4.91,0,0,0-2.71-2.34,7.66,7.66,0,0,1-4.36-4.15,3.56,3.56,0,0,1,.25-2.9,4.41,4.41,0,0,1,3.21-2V12.07a1.5,1.5,0,0,1,3,0V13.5a10.68,10.68,0,0,1,2.28.71A1.5,1.5,0,0,1,35.82,17c-2.44-1.07-4.38-.6-4.69-.06a.56.56,0,0,0,0,.46,4.88,4.88,0,0,0,2.71,2.34,7.67,7.67,0,0,1,4.36,4.16A3.53,3.53,0,0,1,38,26.76Z" class="color6c5ffd svgShape"></path><path fill="#293149" d="M54.74,43.86a4.49,4.49,0,0,0-5.45-2.66l-5.7,1.66a14.4,14.4,0,0,1-10.09-.74L33,41.88l3.54-1.5c1.12-.51,2.28-1,2.28-2.78V34.92A3,3,0,0,0,35.84,32a1.12,1.12,0,0,0-.32,0L24,34.59a11.4,11.4,0,0,0-5.08,2.59l-6.09,5.35A3.32,3.32,0,0,0,9.33,43L7,45a3.33,3.33,0,0,0-.41,4.69L13,57.45a3.31,3.31,0,0,0,2.26,1.18h.3a3.36,3.36,0,0,0,2.14-.77l2.38-2h0A3.43,3.43,0,0,0,21,54.76l8.93.06h.31a46.86,46.86,0,0,0,16.88-3.13l5.08-1.95a4.52,4.52,0,0,0,2.57-5.88ZM18.19,53.57l-2.39,2a.31.31,0,0,1-.24.07.29.29,0,0,1-.23-.12L8.84,47.77a.33.33,0,0,1,0-.47l2.38-2a.34.34,0,0,1,.21-.08.34.34,0,0,1,.26.12L15,49.24l3.24,3.87a.29.29,0,0,1,.07.23A.31.31,0,0,1,18.19,53.57Zm33.74-7.44a1.49,1.49,0,0,1-.84.81l-5.08,2a42.92,42.92,0,0,1-16.09,2.93L21,51.76l-.47-.56,0,0L16,45.72,15,44.59l5.87-5.16a8.49,8.49,0,0,1,3.75-1.91L35.79,35v2.38l-.53.25-6.59,2.77a1.5,1.5,0,0,0-.05,2.75l3.62,1.66a17.45,17.45,0,0,0,12.19.9l5.7-1.66A1.51,1.51,0,0,1,52,45,1.46,1.46,0,0,1,51.93,46.13Z" class="color293149 svgShape"></path></g></svg>