<svg width="22" height="24" viewBox="0 0 22 24" fill="none" xmlns="http://www.w3.org/2000/svg">
<path d="M3.77164 20.3466C3.08569 20.3466 2.44472 20.1104 1.98367 19.6718C1.39893 19.1208 1.1178 18.2887 1.21901 17.3891L1.63508 13.7457C1.71379 13.0597 2.12986 12.1489 2.6134 11.6541L11.8456 1.88218C14.1509 -0.558004 16.5573 -0.625474 18.9975 1.67977C21.4377 3.98501 21.5051 6.39145 19.1999 8.83163L9.96769 18.6035C9.49539 19.1096 8.61827 19.5819 7.93232 19.6944L4.3114 20.3128C4.12024 20.324 3.95156 20.3466 3.77164 20.3466ZM15.4553 1.66852C14.5894 1.66852 13.836 2.20829 13.0713 3.01793L3.83911 12.8012C3.61421 13.0373 3.35557 13.5996 3.31059 13.9257L2.89453 17.569C2.84954 17.9401 2.93951 18.2437 3.14192 18.4349C3.34433 18.626 3.64794 18.6935 4.01903 18.6373L7.63995 18.0189C7.96605 17.9627 8.50582 17.6702 8.73072 17.4341L17.9629 7.66215C19.3573 6.1778 19.8634 4.8059 17.828 2.89423C16.9284 2.02836 16.1525 1.66852 15.4553 1.66852Z" fill="white"/>
<path d="M17.0413 10.7094C17.0188 10.7094 16.9851 10.7094 16.9626 10.7094C13.4541 10.3608 10.6316 7.69579 10.0919 4.20982C10.0244 3.74877 10.3393 3.32146 10.8003 3.24274C11.2613 3.17527 11.6887 3.49013 11.7674 3.95118C12.1947 6.67249 14.3987 8.76407 17.1425 9.03395C17.6036 9.07893 17.9409 9.495 17.8959 9.95599C17.8397 10.3833 17.4686 10.7094 17.0413 10.7094Z" fill="white"/>
<path d="M21.1565 23.9788H0.915402C0.454354 23.9788 0.0720215 23.5964 0.0720215 23.1354C0.0720215 22.6743 0.454354 22.292 0.915402 22.292H21.1565C21.6176 22.292 21.9999 22.6743 21.9999 23.1354C21.9999 23.5964 21.6176 23.9788 21.1565 23.9788Z" fill="white"/>
</svg>
