<svg xmlns="http://www.w3.org/2000/svg" data-name="Icon Template" viewBox="0 0 216.03 216.03" width="256" height="256"><path fill="#1f2c5b" d="M64.52 78.48a1.93 1.93 0 01-1.93-1.93A19.41 19.41 0 0182 57.17 1.93 1.93 0 1182 61 15.55 15.55 0 0066.45 76.55 1.93 1.93 0 0164.52 78.48zM46.47 78.76a1.93 1.93 0 01-1.93-1.93A37.46 37.46 0 0182 39.43a1.93 1.93 0 010 3.86A33.59 33.59 0 0048.4 76.83 1.94 1.94 0 0146.47 78.76zM151.51 78.79a1.92 1.92 0 01-1.93-1.93 15.55 15.55 0 00-15.53-15.53 1.93 1.93 0 110-3.85 19.41 19.41 0 0119.39 19.38A1.93 1.93 0 01151.51 78.79zM169.56 79.07a1.94 1.94 0 01-1.93-1.93A33.59 33.59 0 00134.05 43.6a1.93 1.93 0 010-3.86 37.47 37.47 0 0137.44 37.4A1.94 1.94 0 01169.56 79.07z" class="color1f2c5b svgShape"></path><path fill="#5281c2" d="M127.74,161.09c.05,8.5-8.4,15.44-18.87,15.51s-19-6.78-19.05-15.29S127.69,152.58,127.74,161.09Z" class="color5281c2 svgShape"></path><path fill="#1f2c5b" d="M115.43,155.15a25.71,25.71,0,0,1-7.22,21.42l.66,0c10.47-.07,18.92-7,18.87-15.51C127.72,157.86,122.23,155.89,115.43,155.15Z" class="color1f2c5b svgShape"></path><path fill="#7fa2d5" d="M155.22,138.38h-1.38l-3.6-27.73C147.8,93.5,138.41,81,124.19,76A16.31,16.31,0,1,0,92,72.47a16.44,16.44,0,0,0,.57,4.11c-14.21,5.65-23.77,18.62-24.9,34.57L64.2,138.92H62.15a12.15,12.15,0,0,0-12.08,12.23h0a12.15,12.15,0,0,0,12.22,12.08l93.08-.56a12.15,12.15,0,0,0,12.08-12.22h0A12.15,12.15,0,0,0,155.22,138.38ZM112,68.9a3.66,3.66,0,0,1-.06.48.14.14,0,0,1,0,.06,7.48,7.48,0,0,1-.35.84.41.41,0,0,1,0,.09s-.36.5-.55.71l0,0a6.08,6.08,0,0,1-.75.59l-.1.06h0l-.8.34h0l0,0h-.06c-.31.06-.62.1-.93.13h-.14l-.9-.11h-.08l-.07,0-.8-.33h0l-.06,0,0,0-.68-.52,0,0-.11-.1c-.2-.24-.39-.48-.57-.74a.16.16,0,0,1,0-.07,3.29,3.29,0,0,1-.47-1.67c0-.3.08-.59.11-.89a3.35,3.35,0,0,1,.85-1.47l.11-.08a2.37,2.37,0,0,1,.22-.33,2.49,2.49,0,0,1,.93-.86,3.75,3.75,0,0,1,2.56-.35l.13,0,0,0L110,65a1,1,0,0,1,.18.09c.26.18.5.37.74.57l.06,0a7.72,7.72,0,0,1,.56.72.21.21,0,0,1,0,.06,3.75,3.75,0,0,1,.51,1.87A4.29,4.29,0,0,1,112,68.9Z" class="color7fa2d5 svgShape"></path><path fill="#a3bfe4" d="M74.6,138.33c-.79-32.19,8-53.13,25.86-57.23-8.51-7.76-4-17.55,1.64-23.81a16.21,16.21,0,0,0-9.56,19.29c-14.21,5.65-23.77,18.62-24.9,34.57L64.2,138.92H62.15a12.15,12.15,0,0,0-12.08,12.23h0a12.15,12.15,0,0,0,12.22,12.08l6,0c-10.08-1.92-13.19-17.51.34-20.9C68.74,142.29,74.19,138.5,74.6,138.33Z" opacity=".3" class="colora3bfe4 svgShape"></path><path fill="#5281c2" d="M155.22,138.38h-1.38l-3.6-27.73C147.8,93.5,138.41,81,124.19,76a16.29,16.29,0,0,0-11.07-19.2c.67,2.09,4.21,4.25,4.52,9.76.56,10-2.1,13.18-1.85,14.42.15.68,20.22,4,21.84,36.88.39,8,.68,19.27-5.61,24.7,8.9,4.75,10.65,13.81,3.4,20.25l20-.12a12.15,12.15,0,0,0,12.08-12.22h0A12.15,12.15,0,0,0,155.22,138.38Z" opacity=".3" class="color5281c2 svgShape"></path><path fill="#5281c2" d="M155.22,138.38h-1.38l.14-2.88c-1.61.43-59.08,5.67-89.23-.39l-.54,3.74C74.3,143.56,143.49,144.84,155.22,138.38Z" class="color5281c2 svgShape"></path><path fill="#ffffff" d="M98.15 86.78a4.86 4.86 0 00-4.6-2.64c-.15 0-.29.06-.44.07h0a7.21 7.21 0 00-4.61.86 14.08 14.08 0 00-5.06 4.73c-1.55 2.34-2.39 5.5-.5 7.91 1.75 2.23 4.93 2.45 7.52 2a10.66 10.66 0 008.25-8.11A7.48 7.48 0 0098.15 86.78zM86 104.79a3.26 3.26 0 00-.87-1.46l-.67-.52a3.3 3.3 0 00-1.68-.44h-.38a3.65 3.65 0 00-2.35 1 3.69 3.69 0 00-1 2.36l.12.88a3.36 3.36 0 00.87 1.46l.68.52a3.2 3.2 0 001.68.44h.38a3.6 3.6 0 002.34-1 2.39 2.39 0 00.68-1.07 2.48 2.48 0 00.28-1.28zM92.5 151.61L88 151.56c-2.41 0-2.39 3.8 0 3.75l4.55-.11A1.8 1.8 0 0092.5 151.61z" opacity=".3" class="colorfff svgShape"></path><path fill="#1f2c5b" d="M108.47,64h0A4.46,4.46,0,0,0,104,68.48a4.36,4.36,0,0,0,1.32,3.14,4.74,4.74,0,0,0,3.16,1.29,4.46,4.46,0,0,0,0-8.91Z" class="color1f2c5b svgShape"></path></svg>