<svg width="22" height="22" viewBox="0 0 22 22" fill="none" xmlns="http://www.w3.org/2000/svg">
<path d="M17.1534 6.77325C17.1229 6.77325 17.1026 6.77325 17.0721 6.77325H17.0212C15.099 6.71223 13.665 5.22736 13.665 3.39671C13.665 1.52538 15.1906 0.0100098 17.0517 0.0100098C18.9129 0.0100098 20.4384 1.53555 20.4384 3.39671C20.4283 5.23753 18.9943 6.72239 17.1636 6.78341C17.1636 6.77324 17.1636 6.77325 17.1534 6.77325ZM17.0517 1.52539C16.0245 1.52539 15.1906 2.35935 15.1906 3.38655C15.1906 4.39341 15.9737 5.20703 16.9805 5.24771C16.9907 5.23754 17.0721 5.23754 17.1636 5.24771C18.1501 5.19686 18.9129 4.38324 18.9231 3.38655C18.9231 2.35935 18.0891 1.52539 17.0517 1.52539Z" fill="white"/>
<path d="M17.1638 14.2689C16.7672 14.2689 16.3705 14.2384 15.9739 14.1672C15.5569 14.096 15.2823 13.6994 15.3535 13.2824C15.4247 12.8654 15.8213 12.5908 16.2383 12.662C17.4893 12.8756 18.8114 12.6418 19.6962 12.0519C20.1742 11.7366 20.4285 11.3399 20.4285 10.9432C20.4285 10.5466 20.164 10.1601 19.6962 9.84485C18.8114 9.25497 17.4689 9.02106 16.2078 9.2448C15.7908 9.32616 15.3942 9.0414 15.323 8.62447C15.2518 8.20749 15.5264 7.81085 15.9434 7.73965C17.6011 7.44472 19.3199 7.75998 20.5403 8.57361C21.4353 9.17361 21.954 10.0279 21.954 10.9432C21.954 11.8484 21.4455 12.713 20.5403 13.3232C19.6148 13.9334 18.4148 14.2689 17.1638 14.2689Z" fill="white"/>
<path d="M4.9187 6.7734C4.90853 6.7734 4.89836 6.7734 4.89836 6.7734C3.06771 6.71238 1.63371 5.22752 1.62354 3.39687C1.62354 1.52554 3.14908 0 5.01023 0C6.87139 0 8.39693 1.52554 8.39693 3.3867C8.39693 5.22752 6.96293 6.71238 5.13228 6.7734L4.9187 6.01063L4.98989 6.7734C4.96955 6.7734 4.93904 6.7734 4.9187 6.7734ZM5.0204 5.24786C5.08143 5.24786 5.13228 5.24786 5.1933 5.25803C6.09845 5.21735 6.89173 4.40373 6.89173 3.39687C6.89173 2.36967 6.05777 1.5357 5.03058 1.5357C4.00338 1.5357 3.16942 2.36967 3.16942 3.39687C3.16942 4.39356 3.94236 5.19701 4.92887 5.25803C4.93904 5.24786 4.97972 5.24786 5.0204 5.24786Z" fill="white"/>
<path d="M4.90812 14.2689C3.65717 14.2689 2.45708 13.9334 1.53159 13.3232C0.636604 12.7231 0.11792 11.8586 0.11792 10.9432C0.11792 10.0381 0.636604 9.17361 1.53159 8.57361C2.75202 7.75998 4.47079 7.44472 6.12855 7.73965C6.54553 7.81085 6.82013 8.20749 6.74894 8.62447C6.67774 9.0414 6.2811 9.32616 5.86412 9.2448C4.60301 9.02106 3.2707 9.25497 2.37572 9.84485C1.89772 10.1601 1.64346 10.5466 1.64346 10.9432C1.64346 11.3399 1.90789 11.7366 2.37572 12.0519C3.26053 12.6418 4.58267 12.8756 5.83361 12.662C6.25059 12.5908 6.64723 12.8756 6.71842 13.2824C6.78962 13.6994 6.51502 14.096 6.09804 14.1672C5.7014 14.2384 5.30476 14.2689 4.90812 14.2689Z" fill="white"/>
<path d="M11.0514 14.3704C11.0209 14.3704 11.0005 14.3704 10.97 14.3704H10.9192C8.997 14.3094 7.56299 12.8245 7.56299 10.9939C7.56299 9.12257 9.08852 7.60718 10.9497 7.60718C12.8108 7.60718 14.3364 9.13274 14.3364 10.9939C14.3262 12.8347 12.8922 14.3196 11.0616 14.3806C11.0616 14.3704 11.0616 14.3704 11.0514 14.3704ZM10.9497 9.12257C9.92248 9.12257 9.08852 9.95653 9.08852 10.9837C9.08852 11.9906 9.87163 12.8042 10.8785 12.8449C10.8887 12.8347 10.97 12.8347 11.0616 12.8449C12.0481 12.794 12.8108 11.9804 12.821 10.9837C12.821 9.9667 11.987 9.12257 10.9497 9.12257Z" fill="white"/>
<path d="M11.0504 21.8762C9.82993 21.8762 8.6095 21.5609 7.66367 20.9202C6.76868 20.3202 6.25 19.4659 6.25 18.5505C6.25 17.6454 6.75851 16.7707 7.66367 16.1707C9.56551 14.9096 12.5454 14.9096 14.4371 16.1707C15.332 16.7707 15.8507 17.625 15.8507 18.5404C15.8507 19.4455 15.3422 20.3202 14.4371 20.9202C13.4912 21.5508 12.2708 21.8762 11.0504 21.8762ZM8.5078 17.4521C8.0298 17.7674 7.77554 18.1641 7.77554 18.5607C7.77554 18.9573 8.03997 19.3438 8.5078 19.6591C9.88079 20.5846 12.2098 20.5846 13.5828 19.6591C14.0608 19.3438 14.315 18.9472 14.315 18.5505C14.315 18.1539 14.0506 17.7674 13.5828 17.4521C12.2199 16.5266 9.89096 16.5368 8.5078 17.4521Z" fill="white"/>
</svg>
