<svg width="23" height="26" viewBox="0 0 23 26" fill="none" xmlns="http://www.w3.org/2000/svg">
<path d="M11.9638 13.5883C8.21818 13.5883 5.16968 10.5398 5.16968 6.79415C5.16968 3.0485 8.21818 0 11.9638 0C15.7095 0 18.758 3.0485 18.758 6.79415C18.758 10.5398 15.7095 13.5883 11.9638 13.5883ZM11.9638 1.77239C9.1989 1.77239 6.94206 4.02922 6.94206 6.79415C6.94206 9.55907 9.1989 11.8159 11.9638 11.8159C14.7287 11.8159 16.9856 9.55907 16.9856 6.79415C16.9856 4.02922 14.7287 1.77239 11.9638 1.77239Z" fill="white"/>
<path d="M22.1138 25.4041C21.6294 25.4041 21.2276 25.0024 21.2276 24.5179C21.2276 20.4414 17.0686 17.133 11.9641 17.133C6.85955 17.133 2.70036 20.4414 2.70036 24.5179C2.70036 25.0024 2.29862 25.4041 1.81417 25.4041C1.32972 25.4041 0.927979 25.0024 0.927979 24.5179C0.927979 19.4725 5.87883 15.3606 11.9641 15.3606C18.0493 15.3606 23 19.4725 23 24.5179C23 25.0024 22.5983 25.4041 22.1138 25.4041Z" fill="white"/>
</svg>
