<svg width="23" height="23" viewBox="0 0 23 23" fill="none" xmlns="http://www.w3.org/2000/svg">
<path d="M11.5005 1.11321e-08C9.7365 -7.75987e-05 7.99612 0.405652 6.41401 1.1858C4.8319 1.96595 3.45046 3.0996 2.37658 4.49906C1.30269 5.89851 0.565143 7.52626 0.220989 9.25636C-0.123166 10.9865 -0.0647003 12.7726 0.391863 14.4765C0.848427 16.1804 1.69085 17.7564 2.85396 19.0826C4.01707 20.4088 5.46968 21.4497 7.09943 22.1247C8.72917 22.7997 10.4924 23.0908 12.2526 22.9753C14.0128 22.8599 15.7229 22.3411 17.2505 21.459C17.3879 21.3871 17.5094 21.2882 17.6076 21.1681C17.7058 21.048 17.7787 20.9094 17.8219 20.7604C17.8651 20.6115 17.8778 20.4553 17.8591 20.3013C17.8404 20.1474 17.7907 19.9988 17.7131 19.8645C17.6355 19.7302 17.5315 19.613 17.4074 19.52C17.2833 19.4269 17.1417 19.3599 16.9911 19.323C16.8404 19.2861 16.6839 19.2801 16.5308 19.3052C16.3778 19.3304 16.2314 19.3863 16.1005 19.4695C14.3467 20.4821 12.3077 20.8877 10.2999 20.6234C8.29209 20.3591 6.42756 19.4397 4.99549 18.0078C3.56341 16.5759 2.64382 14.7115 2.37931 12.7037C2.11481 10.6959 2.52018 8.6569 3.53256 6.90296C4.54493 5.14902 6.10774 3.77812 7.97863 3.00287C9.84951 2.22762 11.9239 2.09133 13.8801 2.61515C15.8364 3.13896 17.5651 4.29361 18.7983 5.90003C20.0314 7.50644 20.7001 9.47485 20.7005 11.5V12.3625C20.7005 12.8962 20.4885 13.4081 20.1111 13.7856C19.7336 14.163 19.2218 14.375 18.688 14.375C18.1543 14.375 17.6424 14.163 17.265 13.7856C16.8875 13.4081 16.6755 12.8962 16.6755 12.3625V7.475C16.6755 7.17 16.5543 6.87749 16.3387 6.66183C16.123 6.44616 15.8305 6.325 15.5255 6.325C15.2581 6.31905 14.9969 6.40651 14.787 6.57233C14.5771 6.73815 14.4316 6.97195 14.3755 7.2335C13.5302 6.64882 12.5283 6.33224 11.5005 6.325C10.6347 6.31465 9.78023 6.52168 9.01521 6.92713C8.25019 7.33259 7.59913 7.92351 7.12166 8.64578C6.64419 9.36804 6.35556 10.1986 6.28222 11.0613C6.20888 11.924 6.35316 12.7913 6.70186 13.5838C7.05056 14.3763 7.59253 15.0686 8.27813 15.5974C8.96372 16.1262 9.77103 16.4745 10.6261 16.6104C11.4812 16.7464 12.3567 16.6656 13.1725 16.3755C13.9883 16.0854 14.7182 15.5953 15.2955 14.95C15.8419 15.6576 16.5953 16.1774 17.4508 16.437C18.3063 16.6966 19.2214 16.6831 20.0689 16.3985C20.9164 16.1139 21.6542 15.5723 22.1796 14.8489C22.705 14.1256 22.9919 13.2565 23.0005 12.3625V11.5C23.0005 9.9898 22.7031 8.49438 22.1251 7.09914C21.5472 5.7039 20.7001 4.43615 19.6322 3.36827C18.5644 2.3004 17.2966 1.45331 15.9014 0.875385C14.5061 0.297456 13.0107 1.11321e-08 11.5005 1.11321e-08ZM11.5005 14.375C10.9319 14.375 10.376 14.2064 9.90324 13.8905C9.43045 13.5746 9.06195 13.1256 8.84435 12.6002C8.62675 12.0749 8.56982 11.4968 8.68075 10.9391C8.79168 10.3814 9.0655 9.86914 9.46757 9.46707C9.86965 9.06499 10.3819 8.79117 10.9396 8.68024C11.4973 8.56931 12.0754 8.62624 12.6007 8.84385C13.1261 9.06145 13.5751 9.42994 13.891 9.90273C14.2069 10.3755 14.3755 10.9314 14.3755 11.5C14.3755 12.2625 14.0726 12.9938 13.5334 13.5329C12.9943 14.0721 12.263 14.375 11.5005 14.375Z" fill="#A0A5B4" fill-opacity="0.97"/>
</svg>
