<svg width="12" height="23" viewBox="0 0 12 23" fill="none" xmlns="http://www.w3.org/2000/svg">
<path d="M5.32842 22.7069C5.7349 23.0728 6.2916 23.1186 6.68041 22.716L9.4109 19.8891C9.79087 19.4957 9.7732 18.8828 9.40206 18.4894L8.10309 17.1445L10.0295 15.1501C10.4006 14.7659 10.4006 14.1438 10.0206 13.7504L8.26215 11.9207C10.6568 10.6856 12 8.62715 12 6.20276C12 2.77203 9.32253 0 6 0C2.66863 0 0 2.76288 0 6.20276C0 8.66374 1.35199 10.8686 3.5081 11.8749V20.4563C3.5081 20.7857 3.6053 21.1608 3.87923 21.4078L5.32842 22.7069ZM6 21.0784L5.04566 20.0904V10.6673C3.03093 10.2099 1.59057 8.38014 1.59057 6.20276C1.59057 3.68689 3.55228 1.6559 6 1.6559C8.44772 1.6559 10.4006 3.68689 10.4006 6.20276C10.4006 8.36184 8.9514 10.219 6.74227 10.7222V12.7074L8.43888 14.464L6.62739 16.3028V17.9587L7.82032 19.1755L6 21.0784ZM6 6.25766C6.86598 6.25766 7.5729 5.52577 7.5729 4.6292C7.5729 3.73264 6.86598 3.00075 6 3.00075C5.12518 3.00075 4.4271 3.72349 4.4271 4.6292C4.4271 5.52577 5.13402 6.25766 6 6.25766Z" fill="#7C879B"/>
</svg>
